<svg xmlns="http://www.w3.org/2000/svg" viewBox="0 0 50 50"><path d="M41.35 11.656a3 3 0 0 1-2.998 2.999 3 3 0 0 1-2.998-2.999 3 3 0 0 1 2.998-2.999 3 3 0 0 1 2.998 2.999zM12.163 25.003a12.84 12.84 0 0 0 12.836 12.838c7.084 0 12.836-5.753 12.836-12.838a12.84 12.84 0 0 0-12.836-12.838c-7.094 0-12.836 5.743-12.836 12.838zm21.17 0c0 4.605-3.73 8.335-8.334 8.335s-8.334-3.73-8.334-8.335 3.73-8.335 8.334-8.335 8.334 3.73 8.334 8.335zM8.627 1.308c-1.646.64-3.04 1.494-4.43 2.887C2.803 5.578 1.95 6.98 1.31 8.617.69 10.203.273 12.022.15 14.685s-.152 3.517-.152 10.307L.15 35.3c.122 2.663.55 4.483 1.16 6.068A12.26 12.26 0 0 0 4.196 45.8c1.392 1.393 2.785 2.246 4.43 2.887 1.585.62 3.405 1.037 6.067 1.16S18.2 50 25 50s7.643-.03 10.305-.152 4.482-.55 6.067-1.16c1.646-.64 3.04-1.494 4.43-2.887a12.26 12.26 0 0 0 2.886-4.432c.62-1.586 1.037-3.405 1.16-6.068S50 31.783 50 24.993s-.03-7.644-.152-10.307-.55-4.483-1.16-6.07c-.64-1.637-1.494-3.04-2.876-4.422-1.392-1.393-2.785-2.246-4.43-2.887C39.797.688 37.977.27 35.315.15S31.798-.003 25.01-.003s-7.643.03-10.305.152c-2.673.112-4.492.54-6.077 1.16zM35.1 4.642c2.44.112 3.76.518 4.644.864 1.17.457 2.002.996 2.876 1.87s1.413 1.708 1.87 2.877c.346.884.752 2.206.864 4.645.122 2.633.142 3.426.142 10.104l-.142 10.104c-.112 2.44-.518 3.76-.864 4.645-.457 1.17-.996 2.003-1.87 2.877s-1.707 1.413-2.876 1.87c-.884.346-2.205.752-4.644.864-2.632.122-3.425.142-10.102.142s-7.47-.03-10.102-.142c-2.44-.112-3.76-.518-4.644-.864-1.17-.457-2.002-.996-2.876-1.87s-1.413-1.708-1.87-2.877c-.346-.884-.752-2.206-.864-4.645C4.52 32.474 4.5 31.68 4.5 25.003L4.643 14.9c.112-2.44.518-3.76.864-4.645.457-1.17.996-2.003 1.87-2.877s1.707-1.413 2.876-1.87c.884-.346 2.205-.752 4.644-.864C17.53 4.52 18.322 4.5 25 4.5l10.102.142z" fill="#fff"/></svg>