<svg xmlns="http://www.w3.org/2000/svg" viewBox="0 0 50 50"><path d="M49.998 9.497a20.51 20.51 0 0 1-5.89 1.616 10.29 10.29 0 0 0 4.509-5.675 20.51 20.51 0 0 1-6.514 2.489 10.24 10.24 0 0 0-7.486-3.24 10.26 10.26 0 0 0-10.258 10.258 10.22 10.22 0 0 0 .266 2.337C16.1 16.855 8.542 12.77 3.482 6.565 2.57 8.13 2.09 9.9 2.094 11.72c0 3.56 1.8 6.7 4.563 8.54-1.63-.05-3.222-.5-4.646-1.283-.002.043-.002.085-.002.128 0 4.97 3.536 9.116 8.228 10.06a10.28 10.28 0 0 1-2.702.358c-.66 0-1.303-.062-1.93-.183a10.27 10.27 0 0 0 9.583 7.124 20.59 20.59 0 0 1-12.742 4.391c-.827 0-1.645-.05-2.448-.143 4.69 3.014 10.15 4.613 15.726 4.608 18.867 0 29.183-15.63 29.183-29.185 0-.445-.01-.886-.03-1.326a20.89 20.89 0 0 0 5.118-5.311" fill="#fff"/></svg>